<svg width="116" height="48" viewBox="0 0 116 48" fill="none" xmlns="http://www.w3.org/2000/svg">
<g id="ISB_IDENTITY_COLOUR_RGB_POSITIVE" clip-path="url(#clip0_2254_43904)">
<path id="Vector" d="M64.4522 12.6744H68.7287V40.8872H62.623V14.5012C62.623 13.4917 63.4404 12.6744 64.4499 12.6744H64.4522ZM83.8157 23.6632C80.9816 22.6166 79.4118 21.9197 79.4118 20.0442C79.4118 18.5184 80.5464 17.5158 82.9868 17.5158C85.0359 17.5158 87.1822 18.1109 89.0577 19.0255L90.4214 16.115C90.9169 15.0245 90.3797 13.7464 89.2568 13.332C87.2679 12.598 84.9432 12.1534 82.8988 12.1534C77.578 12.1534 73.1742 14.9875 73.1742 20.6138C73.1742 26.2402 76.7491 27.4604 81.5466 28.9862C84.031 29.7711 85.6448 30.8177 85.6448 32.8228C85.6448 34.8279 84.2926 35.9624 81.5906 35.9624C78.8885 35.9624 75.8346 34.8719 74.1351 33.8693L72.6532 37.0298C72.1578 38.0856 72.637 39.3429 73.7091 39.7967C75.7813 40.6719 78.7519 41.4151 81.6786 41.4151C87.6522 41.4151 91.8824 38.3635 91.8824 32.1698C91.8824 26.7634 88.0019 25.1496 83.8157 23.6678V23.6632ZM115.367 32.8205C115.367 38.0972 111.616 40.8872 105.207 40.8872H95.6148V14.5012C95.6148 13.4917 96.4321 12.6744 97.4416 12.6744H105.381C110.482 12.6744 114.189 14.2002 114.189 19.565C114.189 23.0102 112.14 25.0593 109.479 25.9739V26.1059C113.054 26.5852 115.365 29.1136 115.365 32.8205H115.367ZM101.63 23.9688H103.767C106.557 23.9688 107.865 22.8343 107.865 20.3939C107.865 17.9535 106.557 17.1662 104.073 17.1662H102.086C101.836 17.1662 101.632 17.37 101.632 17.62V23.9688H101.63ZM108.738 32.4268C108.738 29.3752 106.777 28.4583 103.594 28.4583H102.086C101.836 28.4583 101.632 28.6621 101.632 28.9121V35.9138H104.64C107.386 35.9138 108.738 34.6936 108.738 32.4245V32.4268Z" fill="#192890"/>
<path id="Vector_2" d="M48.7039 31.3501L48.7548 31.445C45.2493 40.8709 36.4278 47.9999 24.9944 47.9999C11.1925 47.9999 0 36.8097 0 23.0055C0 20.7874 0.257006 18.6734 0.791858 16.5919C2.74603 16.5919 8.30756 16.5919 13.8737 21.5769C19.896 26.9694 23.9687 33.2834 31.9452 34.1725C37.1154 34.7491 40.0606 33.2325 43.404 32.2971C46.3399 31.4751 48.2778 31.364 48.7039 31.3501ZM49.3568 25.3973C49.0327 25.0986 48.6691 24.8161 48.3033 24.5892C47.2614 23.9455 45.8907 23.2092 42.9502 23.075C38.3981 22.8689 34.1772 26.0641 31.1881 25.4204C29.308 25.0152 28.1341 23.4037 27.3052 21.3222C26.305 18.8123 25.6289 14.2395 22.4776 11.5884C19.3264 8.93497 14.4896 7.85137 9.32401 8.20099C7.55275 8.32139 5.42492 8.73353 3.85973 9.43046L3.88288 9.5717C5.06604 9.68283 9.79866 10.3172 14.5984 13.7232C19.5255 17.2171 22.2276 21.607 24.9204 25.0037C27.9095 28.7777 29.3867 29.5974 32.0679 29.9771C34.7399 30.3545 37.8795 30.0141 42.6584 28.0275C47.1016 26.1799 49.3776 26.2077 49.9935 26.2632L50.056 26.1382C49.8639 25.8997 49.6254 25.6427 49.3568 25.3973ZM49.079 6.77704C47.912 6.36722 46.9534 6.39269 45.3883 6.59644C43.6888 6.8164 43.4248 6.64506 42.7765 5.4457C42.0124 4.02638 41.4637 2.45887 40.0837 1.37064C38.6112 0.208327 36.6848 0.0115206 35.6915 -5.62874e-05C35.5294 -0.00237166 35.0154 0.00225909 34.4574 0.0740357L34.4458 0.171281C35.064 0.370403 36.7959 1.12521 38.0161 3.62582C39.5234 6.72147 40.3546 8.20563 41.8087 8.77289C43.529 9.44203 46.0041 8.31908 47.7059 8.15469C49.8384 7.94862 50.8502 8.30056 51.2624 8.52978L51.3457 8.45337C50.9151 7.83053 50.1602 7.15213 49.0813 6.77473L49.079 6.77704ZM17.6709 2.7344C19.9979 3.29472 22.8296 4.26949 24.8509 5.92035C28.8912 9.22207 29.4122 12.878 30.5351 15.763C31.4335 18.0784 32.3226 19.1157 33.3599 19.6806C34.8603 20.4956 36.3375 20.5118 38.8311 19.8219C42.2972 18.8633 44.439 18.1363 48.6089 19.3518L48.683 19.2152C48.2084 18.56 46.4394 16.4669 42.9965 16.0941C40.0397 15.7723 38.6829 16.4183 36.048 16.4414C34.1957 16.4576 33.8693 15.0591 32.9385 11.7435C32.0193 8.46726 31.848 6.18662 29.4932 3.66286C27.1385 1.13911 22.7277 1.05807 21.4265 1.01871C19.2269 0.956193 17.0365 1.13679 15.6728 1.40306C15.0592 1.52346 14.4248 1.66933 13.8251 1.90086L13.8506 2.05831C14.4734 2.12777 15.9321 2.31532 17.6709 2.7344Z" fill="#192890"/>
</g>
<defs>
<clipPath id="clip0_2254_43904">
<rect width="115.368" height="48" fill="white"/>
</clipPath>
</defs>
</svg>
